<svg width="160" height="160" viewBox="0 0 160 160" fill="none" xmlns="http://www.w3.org/2000/svg">
<path d="M160 140C160 151.046 151.046 160 140 160H20C8.95431 160 0 151.046 0 140V20C0 8.95431 8.95431 0 20 0H140C151.046 0 160 8.95431 160 20V140Z" fill="#22252A"/>
<path d="M48.75 123.914V41.6772H81.066C99.0193 41.6772 107.996 50.4234 107.996 62.8044C107.996 72.4593 103.498 78.4794 95.0823 80.4103V81.2055C104.283 81.6598 111.25 89.0429 111.25 101.197C111.25 114.259 101.6 123.914 83.1979 123.914H48.75ZM79.8317 109.829C89.5938 109.829 93.7455 105.74 93.7455 99.6065C93.7455 92.6777 88.5839 87.7935 80.2805 87.7935H65.5812V109.829H79.8317ZM78.5974 76.094C85.6665 76.094 90.9403 72.1185 90.9403 65.5305C90.9403 59.624 86.6764 55.5348 78.934 55.5348H65.5812V76.094H78.5974Z" fill="white"/>
<rect x="58.6562" y="33.125" width="6.57895" height="6.57894" rx="3.28947" fill="white"/>
<rect x="58.6562" y="36.4141" width="6.57895" height="6.57894" fill="white"/>
<rect x="77.425" y="33.125" width="6.57895" height="6.57894" rx="3.28947" fill="white"/>
<rect x="77.4253" y="36.4141" width="6.57895" height="6.57894" fill="white"/>
<rect x="84.1868" y="131.81" width="6.57891" height="6.57895" rx="3.28945" transform="rotate(-180 84.1868 131.81)" fill="white"/>
<rect x="84.187" y="128.521" width="6.57891" height="6.57895" transform="rotate(-180 84.187 128.521)" fill="white"/>
<rect x="65.4172" y="131.81" width="6.57895" height="6.57894" rx="3.28947" transform="rotate(-180 65.4172 131.81)" fill="white"/>
<rect x="65.4175" y="128.521" width="6.57895" height="6.57894" transform="rotate(-180 65.4175 128.521)" fill="white"/>
<path d="M117.674 53.4766C117.674 53.7979 117.684 54.1173 117.701 54.4346H117.647C117.664 54.1173 117.673 53.7979 117.674 53.4766ZM117.701 17.8125C118.21 27.3435 126.009 34.9381 135.625 35.127V35.1357C125.689 35.3309 117.692 43.4343 117.674 53.4092C117.656 43.4223 109.64 35.3119 99.6875 35.1357V35.127C109.32 34.9564 117.138 27.3554 117.647 17.8125H117.701Z" fill="#FF9A43"/>
</svg>
