<svg width="456" height="160" viewBox="0 0 456 160" fill="none" xmlns="http://www.w3.org/2000/svg">
<path d="M160 140C160 151.046 151.046 160 140 160H20C8.95431 160 0 151.046 0 140V20C0 8.95431 8.95431 0 20 0H140C151.046 0 160 8.95431 160 20V140Z" fill="#22252A"/>
<path d="M48.75 123.914V41.6772H81.066C99.0193 41.6772 107.996 50.4234 107.996 62.8044C107.996 72.4593 103.498 78.4794 95.0823 80.4103V81.2055C104.283 81.6598 111.25 89.0429 111.25 101.197C111.25 114.259 101.6 123.914 83.1979 123.914H48.75ZM79.8317 109.829C89.5938 109.829 93.7455 105.74 93.7455 99.6065C93.7455 92.6777 88.5839 87.7935 80.2805 87.7935H65.5812V109.829H79.8317ZM78.5974 76.094C85.6665 76.094 90.9403 72.1185 90.9403 65.5305C90.9403 59.624 86.6764 55.5348 78.934 55.5348H65.5812V76.094H78.5974Z" fill="white"/>
<rect x="58.6562" y="33.125" width="6.57895" height="6.57894" rx="3.28947" fill="white"/>
<rect x="58.6562" y="36.4141" width="6.57895" height="6.57894" fill="white"/>
<rect x="77.425" y="33.125" width="6.57895" height="6.57894" rx="3.28947" fill="white"/>
<rect x="77.4253" y="36.4141" width="6.57895" height="6.57894" fill="white"/>
<rect x="84.187" y="131.809" width="6.57891" height="6.57895" rx="3.28945" transform="rotate(-180 84.187 131.809)" fill="white"/>
<rect x="84.1873" y="128.52" width="6.57891" height="6.57895" transform="rotate(-180 84.1873 128.52)" fill="white"/>
<rect x="65.4175" y="131.809" width="6.57895" height="6.57894" rx="3.28947" transform="rotate(-180 65.4175 131.809)" fill="white"/>
<rect x="65.4177" y="128.52" width="6.57895" height="6.57894" transform="rotate(-180 65.4177 128.52)" fill="white"/>
<path d="M117.674 53.4766C117.674 53.7979 117.684 54.1173 117.701 54.4346H117.647C117.664 54.1173 117.673 53.7979 117.674 53.4766ZM117.701 17.8125C118.21 27.3435 126.009 34.9381 135.625 35.127V35.1357C125.689 35.3309 117.692 43.4343 117.674 53.4092C117.656 43.4223 109.64 35.3119 99.6875 35.1357V35.127C109.32 34.9564 117.138 27.3554 117.647 17.8125H117.701Z" fill="#FF9A43"/>
<path d="M241.352 57.5234V62.2695C241.352 68.7148 241.41 76.2148 238.949 87.7578L231.625 86.9961C232.504 82.9531 233.031 79.3496 233.383 76.0977L202.445 77.8555L201.391 71.4688L233.852 70.4141C233.969 67.8945 233.998 65.6094 234.027 63.5H203.148V57.5234H241.352ZM246.215 94.1445V100.238H197.582V94.1445H214.984V81.2539H222.426V94.1445H246.215ZM294.086 53.1289V91.4492H286.586V53.1289H294.086ZM295.492 99.4766V105.453H258.344V87.582H265.902V99.4766H295.492ZM264.848 56.5273C273.051 56.5273 279.438 62.1523 279.438 69.9453C279.438 77.9141 273.051 83.4805 264.848 83.4805C256.645 83.4805 250.258 77.9141 250.258 69.9453C250.258 62.1523 256.645 56.5273 264.848 56.5273ZM264.848 63.0312C260.688 62.9727 257.523 65.6094 257.582 69.9453C257.523 74.3984 260.688 76.9766 264.848 76.9766C268.891 76.9766 272.055 74.3984 272.055 69.9453C272.055 65.6094 268.891 62.9727 264.848 63.0312ZM350.102 93.8516V99.9453H301.293V93.8516H350.102ZM313.949 56.4688V65.3164H337.211V56.4688H344.652V84.9453H306.449V56.4688H313.949ZM313.949 79.0859H337.211V71.1172H313.949V79.0859ZM397.855 53.0703V106.508H390.414V53.0703H397.855ZM381.332 57.5234V78.0898H363.754V87.875C371.869 87.8457 378.783 87.377 386.605 86.1172L387.25 92.1523C378.461 93.6758 370.551 94.0273 360.824 94.0273H356.02V72.1719H373.715V63.5586H355.961V57.5234H381.332ZM436.293 57.1133V63.0898H431.898V75.9805C434.096 75.834 436.264 75.5996 438.344 75.3359L438.871 80.8438C428.031 82.7188 415.551 82.9531 406.703 82.9531L405.883 76.918L411.625 76.8594V63.0898H407.289V57.1133H436.293ZM449.652 53.1289V85.2969H442.152V53.1289H449.652ZM431.547 86.293C442.973 86.293 449.945 89.8672 450.004 96.2539C449.945 102.699 442.973 106.391 431.547 106.391C420.18 106.391 413.207 102.699 413.207 96.2539C413.207 89.8672 420.18 86.293 431.547 86.293ZM431.547 91.9766C424.398 91.9766 420.648 93.3828 420.648 96.2539C420.648 99.1836 424.398 100.707 431.547 100.707C438.695 100.707 442.445 99.1836 442.504 96.2539C442.445 93.3828 438.695 91.9766 431.547 91.9766ZM418.773 76.7422L424.691 76.4492V63.0898H418.773V76.7422Z" fill="#22252A"/>
</svg>
